<?xml version="1.0" standalone="no"?>
<!DOCTYPE svg PUBLIC "-//W3C//DTD SVG 20010904//EN"
 "http://www.w3.org/TR/2001/REC-SVG-20010904/DTD/svg10.dtd">
<svg version="1.0" xmlns="http://www.w3.org/2000/svg"
 width="1024.000000pt" height="721.000000pt" viewBox="0 0 1024.000000 721.000000"
 preserveAspectRatio="xMidYMid meet">

<g transform="translate(0.000000,721.000000) scale(0.100000,-0.100000)"
fill="#000000" stroke="none">
<path d="M4390 7203 c-1506 -20 -2685 -88 -3170 -184 -462 -92 -836 -423 -985
-872 -138 -416 -229 -1426 -229 -2542 0 -1139 94 -2163 236 -2564 132 -374
433 -672 803 -795 457 -152 1967 -240 4120 -240 1939 1 3396 72 3955 194 248
54 471 180 650 366 137 144 239 312 298 494 53 160 115 530 152 902 20 199 20
257 17 1720 -2 1494 -3 1515 -25 1685 -99 775 -184 1008 -466 1288 -262 261
-503 354 -1086 419 -854 96 -2654 151 -4270 129z m1118 -2851 c706 -406 1283
-743 1282 -748 -1 -7 -1725 -1005 -2613 -1513 l-57 -32 0 1546 0 1546 53 -30
c28 -16 630 -362 1335 -769z"/>
</g>
</svg>
